<svg width="16" height="24" viewBox="0 0 16 24" fill="none" xmlns="http://www.w3.org/2000/svg">
<path d="M8.00019 13.0607L12.4196 17.4801C12.7125 17.773 13.1874 17.773 13.4803 17.4801C13.7732 17.1872 13.7732 16.7123 13.4803 16.4194L9.06085 12L13.4803 7.58058C13.7732 7.28769 13.7732 6.81282 13.4803 6.51992C13.1874 6.22703 12.7125 6.22703 12.4196 6.51992L8.00019 10.9393L3.58078 6.51992C3.28788 6.22703 2.81301 6.22703 2.52012 6.51992C2.22722 6.81282 2.22722 7.28769 2.52012 7.58058L6.93953 12L2.52012 16.4194C2.22722 16.7123 2.22722 17.1872 2.52012 17.4801C2.81301 17.773 3.28788 17.773 3.58078 17.4801L8.00019 13.0607Z" fill="black" fill-opacity="0.2"/>
</svg>
